<svg width="171" height="32" viewBox="0 0 171 32" fill="none" xmlns="http://www.w3.org/2000/svg">
<path d="M0.0382283 30.6746L0.0389146 20.4191C0.0370787 17.3225 -0.199069 14.0151 0.514193 10.9885C1.06337 8.65874 2.16654 6.42119 3.78056 4.64355C6.65357 1.47931 10.3546 0.178774 14.5444 0C16.952 0.0878955 19.247 0.632709 21.3714 1.79027C24.4287 3.45592 26.5544 6.068 27.5406 9.39541L19.2857 9.42158C17.4099 9.43076 15.3438 9.25726 13.5142 9.69376C12.2736 9.9898 11.0552 10.6188 10.1547 11.5308C9.32715 12.3689 8.78142 13.3792 8.48148 14.5154C7.87952 16.7947 8.23179 23.0165 8.25519 25.7123L8.26782 30.6572L0.0382283 30.6746Z" fill="#262626"/>
<path d="M35.9722 9.04503C33.6259 9.535 31.3239 8.03939 30.8178 5.69651C30.312 3.35339 31.7918 1.04126 34.1315 0.519628C36.4934 -0.00728649 38.8326 1.49015 39.3435 3.85552C39.8543 6.22113 38.3413 8.55025 35.9722 9.04503Z" fill="#262626"/>
<path d="M132.811 30.6847L132.799 0.65332L139.374 0.655617C139.168 6.03078 139.349 11.4401 139.27 16.8215C141.157 14.9883 142.764 12.9105 144.639 11.0782L151.977 11.0794C149.672 13.5606 147.359 16.0254 144.911 18.3674C146.733 21.3921 148.72 24.3463 150.622 27.3238L152.811 30.6888L145.08 30.69C143.61 28.3188 142.127 25.9562 140.63 23.6014C140.123 24.0797 139.674 24.5457 139.312 25.1461C139.298 26.9896 139.321 28.8345 139.326 30.678C137.157 30.7154 134.981 30.6838 132.811 30.6847Z" fill="#262626"/>
<path d="M128.142 8.84588C125.958 9.34181 123.784 7.97955 123.278 5.79822C122.772 3.61667 124.124 1.43649 126.303 0.920136C128.496 0.400336 130.695 1.76329 131.204 3.9593C131.713 6.15531 130.34 8.34696 128.142 8.84588Z" fill="#262626"/>
<path d="M102.115 30.7033L102.117 20.8331C102.122 19.4219 102.351 17.2906 102.024 15.9623C101.773 15.6734 101.652 15.7083 101.284 15.6452C101.079 15.4021 101.081 15.0473 101.07 14.7412C101.04 13.9409 100.772 11.6467 101.293 11.0858C101.522 11.0647 101.747 11.0381 101.974 11.0012C102.499 10.1959 102.017 6.81132 102.156 5.62622C102.42 5.37929 102.543 5.42656 102.895 5.40361C104.851 5.37791 106.806 5.37308 108.762 5.38915L108.76 11.0783L110.297 11.0741L110.292 15.7762L108.654 15.781C108.669 17.4494 108.878 30.152 108.438 30.7021L102.115 30.7033Z" fill="#262626"/>
<path d="M164.038 29.6347C162.99 30.446 161.876 30.9591 160.547 31.0874C158.306 31.3038 156.02 30.6791 154.289 29.2237C152.092 27.3754 150.978 24.3957 150.751 21.5942C150.51 18.6287 151.247 15.4372 153.216 13.1434C154.688 11.4284 156.558 10.625 158.779 10.4402C158.825 10.4377 158.871 10.4333 158.917 10.4324C161.157 10.3943 162.78 10.972 164.458 12.4836L164.493 11.0807L170.8 11.0794L170.791 30.6791C169.745 30.6798 165.301 30.8731 164.681 30.5908C164.382 30.2371 164.418 29.956 164.275 29.5374L164.038 29.6347ZM160.294 16.9452C159.193 17.2408 158.319 17.7025 157.72 18.7157C157.115 19.739 157.022 21.0474 157.342 22.1794C157.619 23.1591 158.248 24.0078 159.146 24.5001C159.933 24.9313 160.694 24.9962 161.569 24.8918C162.766 24.4516 163.704 23.882 164.251 22.6627C164.709 21.641 164.681 20.4465 164.281 19.4102C163.909 18.4488 163.218 17.6718 162.269 17.2543C161.637 16.9759 160.978 16.9101 160.294 16.9452Z" fill="#262626"/>
<path d="M82.6773 19.1248C83.1675 17.0477 83.8254 15.1397 85.2639 13.513C87.0681 11.4724 89.2724 10.7332 91.9221 10.5576C94.4179 10.6345 96.8379 11.3712 98.6295 13.1816C101.339 15.9195 101.585 19.2515 101.547 22.8914C97.3664 22.8598 93.116 22.6734 88.9401 22.8756C89.1373 23.5423 89.3225 24.1564 89.8145 24.6725C90.4337 25.3215 91.2532 25.6674 92.1503 25.6727C93.3631 25.68 94.2641 25.1194 95.0877 24.2806L101.041 24.3083C100.861 25.056 100.673 25.7603 100.321 26.4509C99.2886 28.4754 97.4203 29.9577 95.2704 30.652C92.8197 31.4432 89.982 31.3037 87.6924 30.0927C84.846 28.587 83.7215 26.2854 82.8069 23.3295C82.6816 25.7562 82.7879 28.2512 82.8005 30.6822L76.1225 30.6602C76.1166 28.9129 76.4489 19.122 75.8471 18.2651C75.5926 17.9027 75.1215 17.6207 74.6746 17.5964C74.2602 17.5736 73.9761 17.6875 73.6805 17.9778C73.3631 18.2894 73.205 18.7966 73.129 19.2219C72.9585 20.177 73.0698 21.282 73.076 22.2525V27.3186L73.0485 30.6738L66.7239 30.6705C66.7067 28.8339 67.0892 19.0121 66.3654 18.1221C66.0864 17.7793 65.6563 17.6143 65.223 17.5973C64.7684 17.5794 64.3241 17.7136 64.0005 18.0437C63.7807 18.2676 63.6707 18.5198 63.6131 18.8235C63.3605 20.1497 63.4945 21.6341 63.5032 22.986C63.5197 25.5494 63.576 28.1172 63.5094 30.6797L57.1543 30.6618L57.1623 11.1419C59.2317 11.1102 61.3015 11.1017 63.371 11.1162L63.3761 12.6302C63.5525 12.486 63.7309 12.3442 63.9112 12.2049C65.3788 11.0685 67.0943 10.4247 68.9807 10.7006C70.5307 10.9273 71.5637 11.7149 72.4506 12.9515C73.7702 11.6236 75.2449 10.6749 77.1809 10.6088C78.6265 10.5595 80.0214 10.9845 81.0598 12.0195C83.0087 13.9614 82.6284 16.6181 82.6773 19.1248ZM91.129 16.1591C90.0642 16.5701 89.5513 17.1034 89.0845 18.1455C89.0255 18.2775 88.9764 18.4092 88.9282 18.5455H93.0187L95.2147 18.5382C94.8174 17.6143 94.3878 16.7684 93.4047 16.3509C92.6767 16.0416 91.898 16.0709 91.129 16.1591Z" fill="#262626"/>
<path d="M45.0579 12.5339C46.5478 11.4273 47.7754 10.8469 49.6517 10.6672C49.7338 10.664 49.816 10.662 49.8982 10.6613C51.5411 10.6521 53.2276 11.0946 54.4104 12.293C55.2648 13.1584 55.8078 14.3111 56.0717 15.49C56.5342 17.5557 56.335 19.894 56.3283 22.0032L56.3086 30.6728L49.8456 30.6661C49.8201 28.1768 49.8126 25.6873 49.8227 23.1977C49.8222 21.8518 49.9654 20.3188 49.6753 19.0056C49.5695 18.5271 49.3825 18.1487 48.9462 17.8972C48.2991 17.524 47.3953 17.4726 46.6892 17.6897C46.1226 17.8641 45.8612 18.2129 45.5828 18.7119C45.4497 20.268 45.5174 21.8433 45.5181 23.4045L45.4997 30.6776L39.0273 30.6656L39.0276 11.0806C41.0258 11.0553 43.0262 11.0755 45.0247 11.0764L45.0579 12.5339Z" fill="#262626"/>
<path d="M117.289 12.8589C118.496 11.5911 119.637 10.9414 121.373 10.6534L122.668 10.6055L122.668 16.8846C122.148 16.7538 121.602 16.6785 121.065 16.684C120.079 16.6939 119.1 16.9514 118.4 17.6832C117.912 18.1936 117.625 18.8374 117.488 19.5249C117.208 20.9404 117.379 22.5742 117.387 24.0243L117.383 30.6484C115.17 30.6787 112.952 30.6535 110.738 30.6553C110.777 24.1304 110.777 17.6054 110.738 11.0805L117.374 11.0438L117.289 12.8589Z" fill="#262626"/>
<path d="M23.5828 29.5441C22.4994 30.3308 21.3827 30.8591 20.0434 31.033C17.7891 31.3261 15.395 30.5974 13.6199 29.1982C11.5225 27.5454 10.3299 25.0079 10.0465 22.3844C9.73274 19.4792 10.3501 16.2275 12.2432 13.9285C13.8691 11.9539 15.9208 11.0162 18.4275 10.7851C20.5058 10.5963 22.2038 11.5287 23.7997 12.7278L23.8247 11.1663C25.9909 11.1571 28.1573 11.1638 30.3232 11.1861L30.3469 30.6844L23.8504 30.6683C23.8394 30.2773 23.8401 29.8993 23.7481 29.5177L23.5828 29.5441ZM19.7216 17.0762C18.6136 17.3376 17.7064 17.7952 17.1043 18.8036C16.5305 19.7645 16.4197 20.9659 16.6981 22.0404C16.9526 23.0226 17.5564 23.8779 18.4381 24.3917C19.1506 24.8069 19.8614 24.9092 20.6715 24.8672C21.7909 24.5675 22.6541 24.1134 23.2629 23.074C23.8626 22.05 23.9695 20.7667 23.6262 19.6376C23.3272 18.6533 22.6912 17.8317 21.7547 17.3856C21.1282 17.0872 20.4069 17.0223 19.7216 17.0762Z" fill="#262626"/>
<path d="M31.4144 30.6618L31.3844 17.7887C31.3789 15.6363 31.2632 13.4157 31.402 11.2705L31.609 11.1364C33.736 11.122 35.8631 11.1185 37.9903 11.1256C37.9802 13.3565 38.0318 30.2956 37.8886 30.5285C37.8528 30.5868 37.7934 30.6267 37.7457 30.6759L31.4144 30.6618Z" fill="#262626"/>
<path d="M124.272 30.6933L124.268 11.1973L130.744 11.2035L130.725 30.6906L124.272 30.6933Z" fill="#262626"/>
<path d="M88.9258 18.5458C88.974 18.4095 89.0231 18.2777 89.0821 18.1458C89.5488 17.1037 90.0618 16.5703 91.1266 16.1593C91.8956 16.0712 92.6743 16.0418 93.4023 16.3512C94.3854 16.7686 94.815 17.6145 95.2122 18.5384L93.0162 18.5458H88.9258Z" fill="#EAEAEA"/>
<path d="M161.57 24.8918C160.695 24.9962 159.934 24.9313 159.147 24.5001C158.249 24.0078 157.62 23.1591 157.343 22.1794C157.022 21.0473 157.116 19.739 157.721 18.7157C158.32 17.7025 159.194 17.2408 160.295 16.9452C160.979 16.9101 161.638 16.9759 162.27 17.2543C163.218 17.6717 163.91 18.4488 164.281 19.4101C164.681 20.4465 164.71 21.641 164.251 22.6627C163.704 23.882 162.767 24.4516 161.57 24.8918Z" fill="#EAEAEA"/>
<path d="M20.6723 24.8678C19.8622 24.9098 19.1514 24.8074 18.4389 24.3923C17.5571 23.8785 16.9534 23.0231 16.6988 22.0409C16.4205 20.9664 16.5313 19.765 17.1051 18.8042C17.7072 17.7958 18.6144 17.3382 19.7224 17.0768C20.4077 17.0228 21.129 17.0878 21.7555 17.3861C22.692 17.8323 23.328 18.6538 23.627 19.6381C23.9703 20.7672 23.8634 22.0506 23.2637 23.0745C22.6549 24.1139 21.7917 24.5681 20.6723 24.8678Z" fill="#EAEAEA"/>
</svg>
