<svg width="30" height="30" viewBox="0 0 30 30" fill="none" xmlns="http://www.w3.org/2000/svg">
<path d="M19.2233 13.4822C18.1125 13.4826 17.0218 13.7779 16.0626 14.338V9.53128C16.0626 8.06429 15.4798 6.65739 14.4425 5.62007C13.4052 4.58276 11.9983 4 10.5313 4C9.06429 4 7.65739 4.58276 6.62007 5.62007C5.58276 6.65739 5 8.06429 5 9.53128V20.5938C4.99972 21.7212 5.34396 22.8217 5.98661 23.7479C6.62926 24.6741 7.53962 25.3819 8.59572 25.7762C9.65183 26.1706 10.8032 26.2328 11.8957 25.9546C12.9881 25.6763 13.9695 25.0708 14.7082 24.2192C15.4369 24.9644 16.3386 25.5178 17.3331 25.8301C18.3275 26.1424 19.3837 26.2038 20.4076 26.009C21.4316 25.8141 22.3914 25.369 23.2016 24.7133C24.0118 24.0576 24.6472 23.2116 25.0513 22.2508C25.4553 21.29 25.6154 20.2442 25.5173 19.2065C25.4192 18.1688 25.0659 17.1715 24.489 16.3035C23.912 15.4354 23.1293 14.7235 22.2106 14.2313C21.2918 13.739 20.2656 13.4817 19.2233 13.4822ZM19.2233 15.0626C20.3427 15.0645 21.4253 15.4621 22.2799 16.1851C23.1345 16.908 23.7059 17.9099 23.8933 19.0135H14.5533C14.7406 17.9099 15.3121 16.908 16.1667 16.1851C17.0213 15.4621 18.1039 15.0645 19.2233 15.0626ZM6.58037 9.53128C6.58037 8.48343 6.99662 7.4785 7.73756 6.73756C8.4785 5.99662 9.48343 5.58037 10.5313 5.58037C11.5791 5.58037 12.5841 5.99662 13.325 6.73756C14.0659 7.4785 14.4822 8.48343 14.4822 9.53128V14.2724H6.58037V9.53128ZM10.5313 24.5447C9.48382 24.5435 8.47961 24.1268 7.73895 23.3862C6.99828 22.6455 6.58162 21.6413 6.58037 20.5938V15.8527H14.2965C13.5034 16.8355 13.0247 18.0344 12.9227 19.2931C12.8206 20.5519 13.1 21.8122 13.7244 22.9099C13.3594 23.4155 12.8797 23.8273 12.3246 24.1115C11.7695 24.3958 11.1549 24.5442 10.5313 24.5447ZM19.2233 24.5447C18.1039 24.5428 17.0213 24.1452 16.1667 23.4222C15.3121 22.6993 14.7406 21.6974 14.5533 20.5938H23.8933C23.7059 21.6974 23.1345 22.6993 22.2799 23.4222C21.4253 24.1452 20.3427 24.5428 19.2233 24.5447Z" fill="#262626"/>
</svg>
