<svg width="30" height="30" viewBox="0 0 30 30" fill="none" xmlns="http://www.w3.org/2000/svg">
<path d="M18.9814 17.3938C18.208 17.3938 17.5489 17.1233 17.0039 16.5825C16.4597 16.0408 16.1876 15.3838 16.1876 14.6113C16.1876 13.8388 16.458 13.18 16.9989 12.635C17.5405 12.09 18.1976 11.8175 18.9701 11.8175C19.7426 11.8175 20.4014 12.0883 20.9464 12.63C21.4914 13.17 21.7639 13.8267 21.7639 14.6C21.7639 15.3733 21.493 16.0325 20.9514 16.5775C20.4114 17.1217 19.7547 17.3938 18.9814 17.3938ZM13.4464 23.9325C13.1605 23.9325 12.921 23.8358 12.7276 23.6425C12.5343 23.4492 12.4376 23.2092 12.4376 22.9225V22.5188C12.4376 22.2471 12.5055 21.9879 12.6414 21.7413C12.778 21.4954 12.9614 21.2979 13.1914 21.1488C14.0655 20.6504 14.9822 20.2688 15.9414 20.0038C16.8997 19.7388 17.911 19.6063 18.9751 19.6063C20.0393 19.6063 21.051 19.7388 22.0101 20.0038C22.9693 20.2688 23.886 20.6504 24.7601 21.1488C24.9901 21.2988 25.1735 21.4963 25.3101 21.7413C25.446 21.9879 25.5139 22.2471 25.5139 22.5188V22.9225C25.5139 23.2092 25.4172 23.4492 25.2239 23.6425C25.0305 23.8358 24.7905 23.9325 24.5039 23.9325H13.4464ZM12.1251 17.25H4.62512C4.44762 17.25 4.29887 17.19 4.17887 17.07C4.05971 16.95 4.00012 16.8013 4.00012 16.6238C4.00012 16.4463 4.05971 16.2979 4.17887 16.1788C4.29887 16.0596 4.44762 16 4.62512 16H12.1251C12.3018 16 12.4501 16.06 12.5701 16.18C12.6901 16.3 12.7501 16.4488 12.7501 16.6263C12.7501 16.8038 12.6901 16.9521 12.5701 17.0713C12.4501 17.1904 12.3018 17.25 12.1251 17.25ZM17.1251 7.25H4.62512C4.44762 7.25 4.29887 7.19 4.17887 7.07C4.05971 6.95 4.00012 6.80125 4.00012 6.62375C4.00012 6.44625 4.05971 6.29792 4.17887 6.17875C4.29887 6.05958 4.44762 6 4.62512 6H17.1251C17.3018 6 17.4501 6.06 17.5701 6.18C17.6901 6.3 17.7501 6.44875 17.7501 6.62625C17.7501 6.80375 17.6901 6.95208 17.5701 7.07125C17.4501 7.19042 17.3018 7.25 17.1251 7.25ZM13.7639 12.25H4.62512C4.44762 12.25 4.29887 12.19 4.17887 12.07C4.05971 11.95 4.00012 11.8012 4.00012 11.6238C4.00012 11.4462 4.05971 11.2979 4.17887 11.1788C4.29887 11.0596 4.44762 11 4.62512 11H14.4801C14.3326 11.1942 14.1985 11.3913 14.0776 11.5912C13.9568 11.7913 13.8514 12.0108 13.7639 12.25Z" fill="#2E7CF6"/>
</svg>
